<svg width="192" height="211" viewBox="0 0 192 211" fill="none" xmlns="http://www.w3.org/2000/svg">
<path d="M64.2185 75.432C72.6838 74.09 79.9459 68.6658 83.6365 60.9295C87.3254 53.1915 86.9668 44.1347 82.6796 36.7124L68.9967 13.019C65.0054 6.09925 58.0542 1.39527 50.1457 0.263489C42.2376 -0.870282 34.2466 1.69309 28.4717 7.21496L23.7927 11.6871H23.791C12.6585 22.2133 4.96497 35.8581 1.72236 50.8319C-1.52029 65.8074 -0.163381 81.412 5.61615 95.5997C11.779 110.935 18.9834 125.831 27.1775 140.186C35.6428 154.69 45.1062 168.588 55.5017 181.776C62.7159 190.896 71.9034 198.262 82.3717 203.323C92.8416 208.384 104.321 211.008 115.948 211C123.456 211.003 130.924 209.889 138.101 207.691L143.738 205.944C151.293 203.601 157.37 197.949 160.251 190.582C163.133 183.218 162.505 174.941 158.547 168.094L144.528 143.809C140.244 136.383 132.577 131.546 124.031 130.873C115.485 130.2 107.155 133.779 101.762 140.442C99.6833 143.049 96.5351 144.569 93.2032 144.579C89.7953 144.513 86.5725 143.019 84.3182 140.462C78.0543 133.099 72.4402 125.207 67.5349 116.878C62.7835 108.451 58.7641 99.6333 55.521 90.5186C54.3393 87.3057 54.6633 83.7342 56.3986 80.784C58.0547 77.9049 60.9338 75.9349 64.2174 75.4339L64.2185 75.432ZM41.5715 95.5802C45.105 105.506 49.488 115.107 54.6726 124.28C60.0257 133.345 66.1491 141.933 72.9749 149.946C78.0487 155.903 85.4795 159.335 93.3034 159.335C101.06 159.286 108.383 155.756 113.255 149.72C115.579 146.847 119.169 145.305 122.852 145.594C126.535 145.885 129.84 147.971 131.686 151.171L145.705 175.456V175.457C147.414 178.407 147.686 181.976 146.445 185.152C145.204 188.327 142.584 190.765 139.327 191.774L133.779 193.492V193.493C121.856 197.096 109.125 197.028 97.2424 193.297C85.3594 189.566 74.8746 182.346 67.1514 172.573C57.1939 159.927 48.1189 146.606 39.9938 132.71C32.15 118.966 25.2531 104.705 19.3496 90.0235C14.6922 78.5868 13.5998 66.0078 16.2161 53.9381C18.8324 41.8701 25.0351 30.8726 34.0111 22.3895L38.6998 17.9568C41.1905 15.5785 44.6363 14.4745 48.046 14.9637C51.4558 15.4529 54.4521 17.4808 56.1741 20.4639L69.8571 44.1573C71.7031 47.357 71.8569 51.2607 70.2669 54.5959C68.677 57.9311 65.5486 60.2697 61.8994 60.8514C54.2523 62.0331 47.5357 66.5797 43.5971 73.2418C39.6025 80.0062 38.8605 88.2088 41.5725 95.5817L41.5715 95.5802Z" fill="white"/>
<path d="M142.542 123.114C142.923 123.172 143.304 123.202 143.688 123.203C145.455 123.202 147.162 122.57 148.5 121.42C149.841 120.27 150.725 118.678 150.994 116.934C151.571 113.323 151.865 109.672 151.872 106.015C151.872 92.8658 147.985 80.0109 140.698 69.0666C133.413 58.1207 123.054 49.5746 110.923 44.5008C109.11 43.7174 107.059 43.6893 105.226 44.4248C103.391 45.1603 101.928 46.5981 101.16 48.4194C100.393 50.2391 100.383 52.2901 101.137 54.1164C101.889 55.9443 103.34 57.3938 105.166 58.1441C114.61 62.0908 122.677 68.7414 128.352 77.2596C134.026 85.7761 137.057 95.7797 137.064 106.015C137.057 108.909 136.822 111.796 136.363 114.654C136.062 116.594 136.545 118.576 137.703 120.163C138.862 121.749 140.602 122.81 142.543 123.115L142.542 123.114Z" fill="white"/>
<path d="M181.34 129.511C181.75 129.581 182.166 129.617 182.583 129.619C184.33 129.615 186.02 128.994 187.354 127.865C188.686 126.736 189.577 125.171 189.869 123.449C190.856 117.689 191.355 111.858 191.36 106.014C191.395 85.0495 185.2 64.5475 173.56 47.1109C161.92 29.6747 145.362 16.0895 125.983 8.08367C124.16 7.27717 122.091 7.24078 120.24 7.9812C118.391 8.72162 116.917 10.176 116.153 12.0172C115.388 13.8567 115.399 15.9275 116.181 17.7603C116.963 19.5931 118.45 21.0343 120.308 21.7565C136.986 28.6416 151.24 40.3313 161.259 55.3381C171.28 70.3449 176.611 87.9909 176.58 106.033C176.573 111.046 176.147 116.049 175.306 120.991C174.982 122.919 175.434 124.898 176.565 126.494C177.695 128.091 179.411 129.175 181.338 129.511L181.34 129.511Z" fill="white"/>
</svg>
